<svg width="202" height="48" viewBox="0 0 202 48" fill="none" xmlns="http://www.w3.org/2000/svg">
<g clip-path="url(#clip0_5151_16820)">
<path d="M21.135 18.4536H15.1484C15.1484 25.0375 20.5088 30.3745 27.1217 30.3745V24.4141C23.8156 24.4141 21.135 21.7452 21.135 18.4536Z" fill="#3759A5"/>
<path d="M40.0513 18.4536L28.0781 18.4536L28.0781 30.3745H40.0513V18.4536Z" fill="#1C9D77"/>
<path d="M27.6004 43.2495C20.9876 43.2495 15.1484 37.9125 15.1484 31.3286L40.053 31.3286C40.053 37.9125 34.2132 43.2495 27.6011 43.2495H27.6004Z" fill="#5FC2D7"/>
<path d="M40.0547 13.9595V17.5005H28.0815V5.57959L31.638 5.57959C36.2833 5.57959 40.0547 9.33445 40.0547 13.9595Z" fill="#774D98"/>
<path d="M15.1518 11.54C15.1518 14.8319 17.8321 17.5005 21.1384 17.5005C24.4447 17.5005 27.125 14.8319 27.125 11.54C27.125 8.24817 24.4447 5.57959 21.1384 5.57959C17.8321 5.57959 15.1518 8.24817 15.1518 11.54Z" fill="#E94E42"/>
<path d="M66.4271 28.0386H60.7576V23.8882L71.096 23.8882V37.0037C70.3176 37.3637 68.9285 37.7163 66.9274 38.0623C64.9263 38.4082 63.1056 38.5812 61.4667 38.5812C57.0476 38.5812 53.9839 37.5575 52.2743 35.5101C50.5654 33.4627 49.7109 30.0176 49.7109 25.1753C49.7109 20.3331 50.7182 17.1648 52.7335 15.0068C54.7481 12.8489 57.9371 11.7695 62.3009 11.7695C63.9405 11.7695 65.407 11.8044 66.6991 11.8734C67.9913 11.9432 68.9844 12.0464 69.68 12.1845V16.5427C68.6794 16.4596 67.526 16.3912 66.2197 16.3349C64.9128 16.2799 63.6072 16.2518 62.3009 16.2518C59.4379 16.2518 57.4859 16.902 56.4436 18.2026C55.4013 19.5038 54.8801 21.8281 54.8801 25.1753C54.8801 26.7803 54.9703 28.1083 55.1515 29.1595C55.3319 30.2113 55.6026 31.0687 55.9642 31.7324C56.4362 32.5624 57.1109 33.1577 57.9862 33.517C58.8615 33.877 60.1604 34.0567 61.8841 34.0567C62.4679 34.0567 63.1487 34.0151 63.927 33.932C64.7047 33.8489 65.5383 33.7389 66.4285 33.6001V28.0386H66.4271Z" fill="black"/>
<path d="M79.8046 38.2072H74.9688V17.704H79.4296L79.6383 19.3639H79.7636C80.7917 18.7558 81.8334 18.2845 82.8898 17.9527C83.9456 17.6208 84.9745 17.4546 85.9744 17.4546L86.5373 17.4546C86.6343 17.4546 86.7103 17.4687 86.7662 17.4962V22.1446C86.5992 22.0897 86.3838 22.0548 86.1198 22.0407C85.8552 22.0273 85.4041 22.02 84.7651 22.02C83.7921 22.02 82.8892 22.1031 82.0556 22.2687C81.222 22.4349 80.4712 22.6702 79.8046 22.9746V38.2072V38.2072Z" fill="black"/>
<path d="M93.9014 38.5809C91.7892 38.5809 90.2392 38.062 89.2534 37.0242C88.2663 35.9865 87.7734 34.3614 87.7734 32.1471C87.7734 29.9328 88.3633 28.2736 89.545 27.3324C90.726 26.3918 92.7615 25.9212 95.6521 25.9212C96.4581 25.9212 97.2775 25.9628 98.1118 26.0459C98.9454 26.129 99.6679 26.2396 100.279 26.3777V24.6347C100.279 23.5554 99.946 22.767 99.2787 22.2689C98.6114 21.7708 97.5549 21.5221 96.1106 21.5221C94.8037 21.5221 93.6442 21.5637 92.6295 21.6468C91.6148 21.7299 90.6492 21.8687 89.7322 22.0618V18.0361C90.7879 17.7873 91.9346 17.6003 93.1715 17.4756C94.4078 17.3509 95.8743 17.2886 97.5698 17.2886C100.098 17.2886 101.989 17.8631 103.239 19.0108C104.49 20.1592 105.115 21.8821 105.115 24.1782V38.2068H100.654L100.446 36.3806H100.362C99.4726 37.045 98.4512 37.578 97.2984 37.9789C96.145 38.3797 95.0118 38.5809 93.9008 38.5809H93.9014ZM96.2359 29.367C94.735 29.367 93.7069 29.54 93.1514 29.8859C92.5952 30.2325 92.3178 30.8895 92.3178 31.8575C92.3178 32.8256 92.5467 33.4698 93.0059 33.8707C93.4644 34.2723 94.2496 34.4727 95.3612 34.4727C96.1672 34.4727 97.0217 34.3554 97.9253 34.1201C98.8282 33.8854 99.6133 33.5878 100.281 33.2278V29.7002C99.6133 29.5903 98.9535 29.5071 98.3003 29.4515C97.6472 29.3965 96.959 29.3683 96.2366 29.3683L96.2359 29.367Z" fill="black"/>
<path d="M110.697 21.7295H107.945V17.7038H110.697V17.496C110.697 15.0618 111.322 13.235 112.572 12.0176C113.823 10.8001 115.713 10.1914 118.242 10.1914C118.853 10.1914 119.492 10.2263 120.16 10.2953C120.827 10.365 121.452 10.4549 122.035 10.5648V14.3834C121.619 14.3284 121.139 14.2795 120.597 14.2379C120.055 14.1963 119.562 14.1755 119.117 14.1755C117.7 14.1755 116.748 14.3767 116.262 14.7775C115.775 15.1791 115.532 15.9601 115.532 17.1226V17.7038H121.411V21.7295H115.532V38.2071H110.697V21.7295V21.7295Z" fill="black"/>
<path d="M137.088 33.725V37.8339C136.616 38.0276 135.956 38.2012 135.108 38.3527C134.26 38.5043 133.489 38.5807 132.794 38.5807C130.154 38.5807 128.264 38.0068 127.125 36.8584C125.985 35.7107 125.415 33.7941 125.415 31.1098V21.7297H122.664V17.704H125.541L126.208 12.8062L130.251 12.8062V17.704L136.838 17.704V21.7297H130.251V30.9436C130.251 32.1617 130.515 32.9916 131.043 33.4341C131.571 33.8772 132.516 34.0984 133.878 34.0984C134.35 34.0984 134.905 34.0642 135.545 33.9945C136.184 33.9255 136.698 33.8357 137.088 33.725H137.088Z" fill="black"/>
<path d="M155.884 33.1851V37.0867C155.189 37.5017 154.097 37.8543 152.611 38.1453C151.124 38.4356 149.575 38.581 147.963 38.581C144.683 38.581 142.328 37.7511 140.897 36.0905C139.466 34.4307 138.75 31.6908 138.75 27.8722C138.75 24.0537 139.5 21.5082 141.001 19.8202C142.502 18.1328 144.878 17.2881 148.13 17.2881C151.381 17.2881 153.493 17.9384 154.8 19.2389C156.106 20.5402 156.759 22.7665 156.759 25.9214C156.759 26.5026 156.745 27.0356 156.717 27.5196C156.689 28.0043 156.634 28.6754 156.55 29.5328L143.627 29.5328C143.655 31.249 144.036 32.4523 144.774 33.1435C145.51 33.8354 146.823 34.1813 148.713 34.1813C149.964 34.1813 151.256 34.0847 152.59 33.891C153.924 33.6979 155.022 33.4626 155.884 33.1857V33.1851ZM148.13 21.4807C146.434 21.4807 145.26 21.8126 144.607 22.4769C143.954 23.1413 143.627 24.3446 143.627 26.0876H152.34V25.2161C152.312 23.805 151.992 22.8295 151.381 22.2899C150.77 21.7502 149.686 21.4807 148.13 21.4807V21.4807Z" fill="black"/>
<path d="M165.266 38.2072H160.43V17.704H164.891L165.099 19.3639H165.225C166.253 18.7558 167.294 18.2845 168.351 17.9527C169.407 17.6208 170.435 17.4546 171.435 17.4546L171.998 17.4546C172.095 17.4546 172.171 17.4687 172.227 17.4962V22.1446C172.06 22.0897 171.845 22.0548 171.581 22.0407C171.316 22.0273 170.865 22.02 170.226 22.02C169.253 22.02 168.35 22.1031 167.517 22.2687C166.683 22.4349 165.932 22.6702 165.266 22.9746V38.2072V38.2072Z" fill="black"/>
<path d="M180.023 38.2072H175.188V17.704H179.648L179.857 19.3639H179.982C181.01 18.7558 182.052 18.2845 183.109 17.9527C184.164 17.6208 185.193 17.4546 186.193 17.4546L186.756 17.4546C186.853 17.4546 186.929 17.4687 186.985 17.4962V22.1446C186.818 22.0897 186.603 22.0548 186.339 22.0407C186.074 22.0273 185.623 22.02 184.984 22.02C184.011 22.02 183.108 22.1031 182.274 22.2687C181.441 22.4349 180.69 22.6702 180.023 22.9746V38.2072V38.2072Z" fill="black"/>
</g>
<defs>
<clipPath id="clip0_5151_16820">
<rect width="202" height="48" fill="white"/>
</clipPath>
</defs>
</svg>
